# xmcd
#
# Track frame offsets:
#	150
#	17339
#	32966
#	46401
#	69671
#	79436
#	87724
#	106825
#	118201
#	142801
#	160201
#	178175
#	195632
#	205262
#	220760
#
# Disc length: 3031 seconds
#
# Revision: 1
# Processed by: cddbd v1.5.2PL0 Copyright (c) Steve Scherf et al.
# Submitted via: audiograbber 1.83.01
#
DISCID=d70bd50f
DTITLE=Queen - Rock Montreal [CD2)
DYEAR=2007
DGENRE=Rock
TTITLE0=Under pressure
TTITLE1=Keep yourself alive
TTITLE2=Drum and tympani solo
TTITLE3=Guitar solo
TTITLE4=Flash
TTITLE5=The hero
TTITLE6=Crazy little thing called love
TTITLE7=Jailhouse rock
TTITLE8=Bohemian rhapsody
TTITLE9=Tie your mother down
TTITLE10=Another one bites the dust
TTITLE11=Sheer heart attack
TTITLE12=We will rock you
TTITLE13=We are the champions
TTITLE14=God save the Queen
EXTD=
EXTT0=
EXTT1=
EXTT2=
EXTT3=
EXTT4=
EXTT5=
EXTT6=
EXTT7=
EXTT8=
EXTT9=
EXTT10=
EXTT11=
EXTT12=
EXTT13=
EXTT14=
PLAYORDER=
